<?xml version="1.0" encoding="UTF-8"?>
<svg width="110px" height="73px" viewBox="0 0 110 73" version="1.1" xmlns="http://www.w3.org/2000/svg" xmlns:xlink="http://www.w3.org/1999/xlink">
    <!-- Generator: Sketch 44.1 (41455) - http://www.bohemiancoding.com/sketch -->
    <title>Logo</title>
    <desc>Created with Sketch.</desc>
    <defs>
        <polygon id="path-1" points="0.0541042093 10.3581081 14.9120858 10.3581081 14.9120858 0.0775131757 0.0541042093 0.0775131757 0.0541042093 10.3581081"></polygon>
    </defs>
    <g id="index" stroke="none" stroke-width="1" fill="none" fill-rule="evenodd">
        <g id="集中侦控_首页" transform="translate(-93.000000, -22.000000)">
            <g id="Logo" transform="translate(93.000000, 22.000000)">
                <polygon id="Fill-1" fill="#005B64" points="56.3150781 21.2747895 36.3755104 9.57481318 40.5520582 18.3165632 56.3168114 28.2324787 71.900557 18.2334517 71.8928809 36.1073537 56.3168114 47.601401 35.7794974 31.8136713 35.7782593 33.5967456 35.7777641 39.306776 56.3113639 55.1546814 76.8474398 40.0759889 76.8457065 9.27714088"></polygon>
                <polygon id="Fill-2" fill="#005B64" points="44.7717655 26.7760794 40.9255382 29.0339003 56.3126762 40.111897 56.3126762 34.632951"></polygon>
                <polygon id="Fill-3" fill="#005B64" points="37.5602811 21.4563911 36.805546 20.8046054 36.8050507 20.8049195"></polygon>
                <path d="M56.3109677,0.246473649 L35.7783584,9.23903784 L35.7795964,9.23928446 L35.7795964,20.7173014 L35.7783584,20.717548 L44.6336203,26.7176054 L35.7805869,31.813548 L36.1775162,32.1457473 L45.1080535,26.9992473 L56.3156724,34.6329264 L56.3166629,34.6324331 L56.3166629,34.0232777 L56.3156724,34.0242642 L45.6694002,26.811075 L45.1191963,26.4381831 L37.5602068,21.3163453 L37.6483583,21.3760277 L37.5602068,21.3163453 L36.8049764,20.804852 L36.8054717,20.8046054 L36.2926579,20.4563757 L36.2926579,9.56038581 L36.3129624,9.55150743 L56.3156724,21.2364399 L76.846796,9.23903784 L56.3114629,0.247213514 L56.3114629,0.246473649 L56.3109677,0.246473649 Z M36.8265191,9.32634189 L55.7984015,1.01765946 L56.3114629,0.785341892 L56.3114629,0.771531081 L75.8201779,9.31401081 L56.3156724,20.7118757 L36.8265191,9.32634189 Z" id="Fill-4" fill="#005B64"></path>
                <polygon id="Fill-5" fill="#005B64" points="3.75867018 62.6363922 9.90466073e-05 72.9168145 3.72103247 72.9168145 5.10298026 69.1358584 10.601305 69.1358584 11.6239613 66.5167368 6.08304644 66.5196963 6.52429907 65.2540341 12.7184263 65.2540341 13.6920544 62.6363922"></polygon>
                <g id="Group-21" transform="translate(11.390360, 62.558780)">
                    <path d="M0.0995913637,10.338551 C0.112715039,10.2865139 1.04028652,7.73866588 1.04028652,7.73866588 L4.73546782,7.73866588 L6.58590606,2.69525372 L2.90434367,2.69525372 L2.90434367,2.67725034 C2.91746734,2.6254598 3.81730577,0.0776118243 3.81730577,0.0776118243 L14.5495009,0.0776118243 L13.5758728,2.69525372 L10.3249155,2.69525372 L8.47596295,7.73866588 L11.74772,7.73866588 L10.7807775,10.3580341 L0.0995913637,10.3580341 L0.0995913637,10.338551 Z" id="Fill-6" fill="#005B64"></path>
                    <path d="M23.0043669,3.04516047 C23.0043669,2.94256588 22.9830719,2.8550152 22.9456818,2.78324831 C22.9063108,2.71320777 22.8082546,2.67720101 22.6515134,2.67720101 L18.7376867,2.67720101 L17.626879,5.70349493 L19.341871,3.97566385 L22.4571344,3.97566385 C22.6515134,3.97566385 22.791912,3.88959291 22.877092,3.71523142 C22.9617769,3.54136318 23.0043669,3.38845777 23.0043669,3.25824155 L23.0043669,3.04516047 Z M15.9524961,0.0775625 L24.6376455,0.0775625 C25.0786505,0.0775625 25.4396754,0.175224662 25.7192344,0.368822635 C26.0002792,0.56266723 26.2157056,0.809535473 26.3724468,1.10572804 C26.5277024,1.40340034 26.6339299,1.72548818 26.6928626,2.07544426 C26.7515477,2.42515372 26.7807665,2.74748818 26.7807665,3.04516047 C26.7807665,3.70561318 26.6190729,4.24744088 26.2942,4.67532939 C25.9690795,5.10124493 25.5622456,5.44158277 25.0756791,5.69190372 C24.5886174,5.94592399 24.0515372,6.12669764 23.4599813,6.2369375 C22.8701588,6.34594426 22.3150025,6.42091723 21.7955031,6.45988345 L25.6112736,10.3579848 L21.4441352,10.3579848 L17.3114156,6.55433953 L17.2185594,6.82759628 L15.9344201,10.3579848 L12.193925,10.3579848 L15.9524961,0.0775625 Z" id="Fill-8" fill="#005B64"></path>
                    <g id="Group-12" transform="translate(26.494967, 0.000000)">
                        <mask id="mask-2" fill="white">
                            <use xlink:href="#path-1"></use>
                        </mask>
                        <g id="Clip-11"></g>
                        <path d="M14.9120858,0.0775131757 L13.9862476,2.69515507 L6.57830424,2.69515507 L5.46724892,5.74241182 L7.31644908,3.95785777 L12.1727042,3.95785777 L10.6716529,6.57697939 L5.15698542,6.57697939 L4.72737076,7.73881385 L12.1855803,7.73881385 C12.1855803,7.73881385 11.2433994,10.3581821 11.2300282,10.3581821 L0.0541042093,10.3581821 L3.81242773,0.0775131757 L14.9120858,0.0775131757 Z" id="Fill-10" fill="#005B64" mask="url(#mask-2)"></path>
                    </g>
                    <polygon id="Fill-13" fill="#005B64" points="59.53699 10.2277686 55.861618 10.2277686 53.1061414 2.69693074 49.5533396 2.69693074 48.550245 0.122940878 59.4193721 0.122940878 60.3996859 2.67720101 60.3996859 2.69693074 56.7815134 2.69693074"></polygon>
                    <path d="M64.6728537,10.2277686 L60.97792,0.122940878 L71.9681316,0.122940878 C71.9795219,0.122940878 72.9058553,2.69693074 72.9058553,2.69693074 L65.5729397,2.69693074 L65.9943831,3.84076182 L66.809289,5.97502534 L67.3354741,3.84076182 L72.2013863,3.84076182 L73.3433937,6.41277872 L66.9353258,6.41277872 L67.3909402,7.65402534 L74.5718193,7.65402534 L75.5828375,10.2277686 L64.6728537,10.2277686 Z" id="Fill-15" fill="#005B64"></path>
                    <polygon id="Fill-17" fill="#005B64" points="98.2098864 10.2277686 94.5325335 10.2277686 93.212985 6.60489696 89.0787796 6.60489696 90.4000614 10.2277686 86.7625747 10.2277686 83.0673934 0.122940878 86.703642 0.122940878 88.1395702 4.03263345 92.2772422 4.04891047 90.8393331 0.122940878 94.5149527 0.122940878"></polygon>
                    <path d="M84.1994962,7.75494291 L83.1263262,7.75494291 L79.8268361,7.75494291 L79.6926279,7.75494291 C78.9381404,7.70438547 78.1442818,7.27994966 77.5821923,6.53959155 C76.6724492,5.33755777 76.7232106,3.76904426 77.6980768,3.03707128 C78.0021499,2.80746655 78.3616891,2.69993953 78.7388091,2.67897669 L79.0508059,2.67897669 L80.632085,2.67897669 L82.7947676,2.67897669 L81.8099967,0.122990203 L77.5643639,0.122990203 C77.5643639,0.122990203 76.7214773,0.345936149 76.3324717,0.552358446 C74.2354075,1.67177399 73.66168,4.67365236 75.050561,7.26046655 C75.9783801,8.98977736 77.5465355,10.0897098 79.109491,10.3013111 L79.109491,10.3109294 L78.3255371,10.3109294 L85.183029,10.3109294 L84.1994962,7.75494291 Z" id="Fill-19" fill="#005B64"></path>
                </g>
            </g>
        </g>
    </g>
</svg>